<?xml version="1.0" encoding="UTF-8"?>
<svg width="200px" height="200px" viewBox="0 0 200 200" version="1.1" xmlns="http://www.w3.org/2000/svg" xmlns:xlink="http://www.w3.org/1999/xlink">
    <title>basket empty</title>
    <g id="basket-empty" stroke="none" stroke-width="1" fill="none" fill-rule="evenodd">
        <circle id="Oval" fill-opacity="0.05" fill="#E4022B" cx="100" cy="100" r="100"></circle>
        <g id="burger" opacity="0.07" transform="translate(15.000000, 117.000000)" fill="#000000" fill-rule="nonzero">
            <path d="M14,6.15234375 C14,5.614875 13.6534453,5.15705859 13.172168,4.98987891 C13.0982031,3.322375 12.4756406,2.0426875 11.3186719,1.18275391 C10.2627383,0.397933594 8.80974609,0 7,0 C5.19025391,0 3.73726172,0.397933594 2.68132813,1.18278125 C1.52435937,2.0426875 0.901796875,3.322375 0.827832031,4.98990625 C0.346554687,5.15705859 0,5.614875 0,6.15234375 C0,6.46726172 0.119054688,6.75478125 0.314316406,6.97265625 C0.119054687,7.19053125 0,7.47805078 0,7.79296875 C0,8.33374609 0.350820313,8.79383203 0.836691406,8.95844141 C1.01262109,10.8326367 2.60580469,12.3046875 4.5390625,12.3046875 L9.4609375,12.3046875 C11.3941953,12.3046875 12.9873789,10.8326367 13.1633086,8.95844141 C13.6491797,8.79383203 14,8.33374609 14,7.79296875 C14,7.47805078 13.8809453,7.19053125 13.6856836,6.97265625 C13.8809453,6.75478125 14,6.46726172 14,6.15234375 Z M7,0.8203125 C9.35241016,0.8203125 12.1390391,1.54546875 12.3465508,4.921875 L1.65344922,4.921875 C1.86096094,1.54546875 4.64758984,0.8203125 7,0.8203125 Z M1.23046875,5.7421875 L12.7695312,5.7421875 C12.9956914,5.7421875 13.1796875,5.92618359 13.1796875,6.15234375 C13.1796875,6.37850391 12.9956914,6.5625 12.7695312,6.5625 L1.23046875,6.5625 C1.00430859,6.5625 0.8203125,6.37850391 0.8203125,6.15234375 C0.8203125,5.92618359 1.00430859,5.7421875 1.23046875,5.7421875 Z M9.4609375,11.484375 L4.5390625,11.484375 C3.08144922,11.484375 1.87187109,10.4129648 1.67032031,9.0234375 L2.05078125,9.0234375 C2.32498437,9.0234375 2.41163672,9.11670703 2.58423047,9.3025625 C2.79636328,9.53096484 3.08689062,9.84375 3.71875,9.84375 C4.35506641,9.84375 4.63801953,9.52776563 4.84462891,9.29703906 C5.00776172,9.114875 5.08962891,9.0234375 5.359375,9.0234375 C5.62912109,9.0234375 5.71098828,9.114875 5.87412109,9.29703906 C6.08073047,9.52776562 6.36368359,9.84375 7,9.84375 C7.63631641,9.84375 7.91926953,9.52776563 8.12587891,9.29703906 C8.28901172,9.114875 8.37087891,9.0234375 8.640625,9.0234375 C8.91037109,9.0234375 8.99223828,9.114875 9.15537109,9.29703906 C9.36198047,9.52776562 9.64493359,9.84375 10.28125,9.84375 C10.9175664,9.84375 11.2005195,9.52776563 11.4071289,9.29703906 C11.5702617,9.114875 11.6521289,9.0234375 11.921875,9.0234375 L12.3296797,9.0234375 C12.1281289,10.4129648 10.9185508,11.484375 9.4609375,11.484375 Z M12.7695312,8.203125 L11.921875,8.203125 C11.2855586,8.203125 11.0026055,8.51910937 10.7959961,8.74983594 C10.6328633,8.932 10.5509961,9.0234375 10.28125,9.0234375 C10.0115039,9.0234375 9.92963672,8.932 9.76650391,8.74983594 C9.55989453,8.51910938 9.27694141,8.203125 8.640625,8.203125 C8.00430859,8.203125 7.72135547,8.51910937 7.51474609,8.74983594 C7.35161328,8.932 7.26974609,9.0234375 7,9.0234375 C6.73025391,9.0234375 6.64838672,8.932 6.48525391,8.74983594 C6.27864453,8.51910938 5.99569141,8.203125 5.359375,8.203125 C4.72305859,8.203125 4.44010547,8.51910937 4.23349609,8.74983594 C4.07036328,8.932 3.98849609,9.0234375 3.71875,9.0234375 C3.44454687,9.0234375 3.35789453,8.93016797 3.18530078,8.7443125 C2.97316797,8.51591016 2.68264062,8.203125 2.05078125,8.203125 L1.23046875,8.203125 C1.00430859,8.203125 0.8203125,8.01912891 0.8203125,7.79296875 C0.8203125,7.56680859 1.00430859,7.3828125 1.23046875,7.3828125 L12.7695312,7.3828125 C12.9956914,7.3828125 13.1796875,7.56680859 13.1796875,7.79296875 C13.1796875,8.01912891 12.9956914,8.203125 12.7695312,8.203125 Z" id="Shape"></path>
            <circle id="Oval" cx="4.5390625" cy="3.69140625" r="1"></circle>
            <circle id="Oval" cx="9.4609375" cy="3.69140625" r="1"></circle>
            <circle id="Oval" cx="7.8203125" cy="2.87109375" r="1"></circle>
            <circle id="Oval" cx="6.1796875" cy="2.05078125" r="1"></circle>
        </g>
        <g id="burger-copy" opacity="0.05" transform="translate(54.000000, 1.000000)" fill="#000000" fill-rule="nonzero">
            <path d="M18,7.91015625 C18,7.219125 17.5544297,6.63050391 16.9356445,6.41555859 C16.8405469,4.271625 16.0401094,2.6263125 14.5525781,1.52068359 C13.1949492,0.511628906 11.3268164,0 9,0 C6.67318359,0 4.80505078,0.511628906 3.44742187,1.52071875 C1.95989062,2.6263125 1.15945312,4.271625 1.06435547,6.41559375 C0.445570313,6.63050391 0,7.219125 0,7.91015625 C0,8.31505078 0.153070312,8.68471875 0.404121094,8.96484375 C0.153070312,9.24496875 0,9.61463672 0,10.0195312 C0,10.7148164 0.451054687,11.3063555 1.07574609,11.5179961 C1.30194141,13.9276758 3.35032031,15.8203125 5.8359375,15.8203125 L12.1640625,15.8203125 C14.6496797,15.8203125 16.6980586,13.9276758 16.9242539,11.5179961 C17.5489453,11.3063555 18,10.7148164 18,10.0195312 C18,9.61463672 17.8469297,9.24496875 17.5958789,8.96484375 C17.8469297,8.68471875 18,8.31505078 18,7.91015625 Z M9,1.0546875 C12.0245273,1.0546875 15.6073359,1.98703125 15.8741367,6.328125 L2.12586328,6.328125 C2.39266406,1.98703125 5.97547266,1.0546875 9,1.0546875 Z M1.58203125,7.3828125 L16.4179687,7.3828125 C16.7087461,7.3828125 16.9453125,7.61937891 16.9453125,7.91015625 C16.9453125,8.20093359 16.7087461,8.4375 16.4179687,8.4375 L1.58203125,8.4375 C1.29125391,8.4375 1.0546875,8.20093359 1.0546875,7.91015625 C1.0546875,7.61937891 1.29125391,7.3828125 1.58203125,7.3828125 Z M12.1640625,14.765625 L5.8359375,14.765625 C3.96186328,14.765625 2.40669141,13.3880977 2.14755469,11.6015625 L2.63671875,11.6015625 C2.98926562,11.6015625 3.10067578,11.7214805 3.32258203,11.9604375 C3.59532422,12.2540977 3.96885937,12.65625 4.78125,12.65625 C5.59937109,12.65625 5.96316797,12.2499844 6.22880859,11.9533359 C6.43855078,11.719125 6.54380859,11.6015625 6.890625,11.6015625 C7.23744141,11.6015625 7.34269922,11.719125 7.55244141,11.9533359 C7.81808203,12.2499844 8.18187891,12.65625 9,12.65625 C9.81812109,12.65625 10.181918,12.2499844 10.4475586,11.9533359 C10.6573008,11.719125 10.7625586,11.6015625 11.109375,11.6015625 C11.4561914,11.6015625 11.5614492,11.719125 11.7711914,11.9533359 C12.036832,12.2499844 12.4006289,12.65625 13.21875,12.65625 C14.0368711,12.65625 14.400668,12.2499844 14.6663086,11.9533359 C14.8760508,11.719125 14.9813086,11.6015625 15.328125,11.6015625 L15.8524453,11.6015625 C15.5933086,13.3880977 14.0381367,14.765625 12.1640625,14.765625 Z M16.4179687,10.546875 L15.328125,10.546875 C14.5100039,10.546875 14.146207,10.9531406 13.8805664,11.2497891 C13.6708242,11.484 13.5655664,11.6015625 13.21875,11.6015625 C12.8719336,11.6015625 12.7666758,11.484 12.5569336,11.2497891 C12.291293,10.9531406 11.9274961,10.546875 11.109375,10.546875 C10.2912539,10.546875 9.92745703,10.9531406 9.66181641,11.2497891 C9.45207422,11.484 9.34681641,11.6015625 9,11.6015625 C8.65318359,11.6015625 8.54792578,11.484 8.33818359,11.2497891 C8.07254297,10.9531406 7.70874609,10.546875 6.890625,10.546875 C6.07250391,10.546875 5.70870703,10.9531406 5.44306641,11.2497891 C5.23332422,11.484 5.12806641,11.6015625 4.78125,11.6015625 C4.42870312,11.6015625 4.31729297,11.4816445 4.09538672,11.2426875 C3.82264453,10.9490273 3.44910937,10.546875 2.63671875,10.546875 L1.58203125,10.546875 C1.29125391,10.546875 1.0546875,10.3103086 1.0546875,10.0195312 C1.0546875,9.72875391 1.29125391,9.4921875 1.58203125,9.4921875 L16.4179687,9.4921875 C16.7087461,9.4921875 16.9453125,9.72875391 16.9453125,10.0195312 C16.9453125,10.3103086 16.7087461,10.546875 16.4179687,10.546875 Z" id="Shape"></path>
            <circle id="Oval" cx="5.8359375" cy="4.74609375" r="1"></circle>
            <circle id="Oval" cx="12.1640625" cy="4.74609375" r="1"></circle>
            <circle id="Oval" cx="10.0546875" cy="3.69140625" r="1"></circle>
            <circle id="Oval" cx="7.9453125" cy="2.63671875" r="1"></circle>
        </g>
        <g id="burger-copy-2" opacity="0.1" transform="translate(119.000000, 65.000000)" fill="#000000" fill-rule="nonzero">
            <path d="M12,5.2734375 C12,4.81275 11.7029531,4.42033594 11.2904297,4.27703906 C11.2270312,2.84775 10.6934062,1.750875 9.70171875,1.01378906 C8.79663281,0.341085938 7.55121094,0 6,0 C4.44878906,0 3.20336719,0.341085938 2.29828125,1.0138125 C1.30659375,1.750875 0.77296875,2.84775 0.709570312,4.2770625 C0.297046875,4.42033594 0,4.81275 0,5.2734375 C0,5.54336719 0.102046875,5.7898125 0.269414062,5.9765625 C0.102046875,6.1633125 0,6.40975781 0,6.6796875 C0,7.14321094 0.300703125,7.53757031 0.717164062,7.67866406 C0.867960938,9.28511719 2.23354688,10.546875 3.890625,10.546875 L8.109375,10.546875 C9.76645313,10.546875 11.1320391,9.28511719 11.2828359,7.67866406 C11.6992969,7.53757031 12,7.14321094 12,6.6796875 C12,6.40975781 11.8979531,6.1633125 11.7305859,5.9765625 C11.8979531,5.7898125 12,5.54336719 12,5.2734375 Z M6,0.703125 C8.01635156,0.703125 10.4048906,1.3246875 10.5827578,4.21875 L1.41724219,4.21875 C1.59510937,1.3246875 3.98364844,0.703125 6,0.703125 Z M1.0546875,4.921875 L10.9453125,4.921875 C11.1391641,4.921875 11.296875,5.07958594 11.296875,5.2734375 C11.296875,5.46728906 11.1391641,5.625 10.9453125,5.625 L1.0546875,5.625 C0.860835937,5.625 0.703125,5.46728906 0.703125,5.2734375 C0.703125,5.07958594 0.860835937,4.921875 1.0546875,4.921875 Z M8.109375,9.84375 L3.890625,9.84375 C2.64124219,9.84375 1.60446094,8.92539844 1.43170312,7.734375 L1.7578125,7.734375 C1.99284375,7.734375 2.06711719,7.81432031 2.21505469,7.973625 C2.39688281,8.16939844 2.64590625,8.4375 3.1875,8.4375 C3.73291406,8.4375 3.97544531,8.16665625 4.15253906,7.96889062 C4.29236719,7.81275 4.36253906,7.734375 4.59375,7.734375 C4.82496094,7.734375 4.89513281,7.81275 5.03496094,7.96889062 C5.21205469,8.16665625 5.45458594,8.4375 6,8.4375 C6.54541406,8.4375 6.78794531,8.16665625 6.96503906,7.96889062 C7.10486719,7.81275 7.17503906,7.734375 7.40625,7.734375 C7.63746094,7.734375 7.70763281,7.81275 7.84746094,7.96889062 C8.02455469,8.16665625 8.26708594,8.4375 8.8125,8.4375 C9.35791406,8.4375 9.60044531,8.16665625 9.77753906,7.96889062 C9.91736719,7.81275 9.98753906,7.734375 10.21875,7.734375 L10.5682969,7.734375 C10.3955391,8.92539844 9.35875781,9.84375 8.109375,9.84375 Z M10.9453125,7.03125 L10.21875,7.03125 C9.67333594,7.03125 9.43080469,7.30209375 9.25371094,7.49985938 C9.11388281,7.656 9.04371094,7.734375 8.8125,7.734375 C8.58128906,7.734375 8.51111719,7.656 8.37128906,7.49985938 C8.19419531,7.30209375 7.95166406,7.03125 7.40625,7.03125 C6.86083594,7.03125 6.61830469,7.30209375 6.44121094,7.49985938 C6.30138281,7.656 6.23121094,7.734375 6,7.734375 C5.76878906,7.734375 5.69861719,7.656 5.55878906,7.49985938 C5.38169531,7.30209375 5.13916406,7.03125 4.59375,7.03125 C4.04833594,7.03125 3.80580469,7.30209375 3.62871094,7.49985938 C3.48888281,7.656 3.41871094,7.734375 3.1875,7.734375 C2.95246875,7.734375 2.87819531,7.65442969 2.73025781,7.495125 C2.54842969,7.29935156 2.29940625,7.03125 1.7578125,7.03125 L1.0546875,7.03125 C0.860835937,7.03125 0.703125,6.87353906 0.703125,6.6796875 C0.703125,6.48583594 0.860835937,6.328125 1.0546875,6.328125 L10.9453125,6.328125 C11.1391641,6.328125 11.296875,6.48583594 11.296875,6.6796875 C11.296875,6.87353906 11.1391641,7.03125 10.9453125,7.03125 Z" id="Shape"></path>
            <circle id="Oval" cx="3.890625" cy="3.1640625" r="1"></circle>
            <circle id="Oval" cx="8.109375" cy="3.1640625" r="1"></circle>
            <circle id="Oval" cx="6.703125" cy="2.4609375" r="1"></circle>
            <circle id="Oval" cx="5.296875" cy="1.7578125" r="1"></circle>
        </g>
        <g id="Group-14" opacity="0.05" transform="translate(14.508481, 49.000000) rotate(-28.000000) translate(-14.508481, -49.000000) translate(8.000000, 37.000000)">
            <g id="Group-3" transform="translate(0.000000, 8.750083)">
                <path d="M1.37828847e-14,0 C1.37828847e-14,0 1.53290211,13.7481776 1.53290211,13.7481776 L1.53290211,13.8292794 C1.53290211,14.6133532 3.53813787,15.2499174 6.00804519,15.2499174 C8.47795251,15.2499174 10.4832368,14.6133532 10.4832368,13.8292794 L10.4832368,13.7481776 C10.4832368,13.7481776 12.0160904,0 12.0160904,0" id="Fill-1" fill="#FFFFFF"></path>
                <path d="M1.37828847e-14,0 C1.37828847e-14,0 1.53290211,13.7481776 1.53290211,13.7481776 L1.53290211,13.8292794 C1.53290211,14.6133532 3.53813787,15.2499174 6.00804519,15.2499174 C8.47795251,15.2499174 10.4832368,14.6133532 10.4832368,13.8292794 L10.4832368,13.7481776 C10.4832368,13.7481776 12.0160904,0 12.0160904,0" id="Stroke-2" stroke="#000000" stroke-linecap="round" stroke-linejoin="round"></path>
            </g>
            <g id="Group-6" transform="translate(0.000000, 7.241069)">
                <path d="M11.604035,0 C11.604035,0 12.0160904,1.24534112 12.0160904,1.50901386 C12.0160904,2.56165352 9.32398257,3.41626221 6.00804519,3.41626221 C2.69210781,3.41626221 1.37828847e-14,2.56165352 1.37828847e-14,1.50901386 C1.37828847e-14,1.23146208 0.412055338,0 0.412055338,0" id="Fill-4" fill="#FFFFFF"></path>
                <path d="M11.604035,0 C11.604035,0 12.0160904,1.24534112 12.0160904,1.50901386 C12.0160904,2.56165352 9.32398257,3.41626221 6.00804519,3.41626221 C2.69210781,3.41626221 1.37828847e-14,2.56165352 1.37828847e-14,1.50901386 C1.37828847e-14,1.23146208 0.412055338,0 0.412055338,0" id="Stroke-5" stroke="#000000" stroke-linecap="round" stroke-linejoin="round"></path>
            </g>
            <g id="Group-9" transform="translate(0.412055, 5.464624)">
                <path d="M5.59598985,0 C8.68453786,0 11.1919797,0.795998581 11.1919797,1.77644491 C11.1919797,2.75689123 8.68453786,3.55289466 5.59598985,3.55289466 C2.50749034,3.55289466 0,2.75689123 0,1.77644491 C0,0.795998581 2.50749034,0 5.59598985,0 Z" id="Fill-7" fill="#FFFFFF"></path>
                <path d="M5.59598985,0 C8.68453786,0 11.1919797,0.795998581 11.1919797,1.77644491 C11.1919797,2.75689123 8.68453786,3.55289466 5.59598985,3.55289466 C2.50749034,3.55289466 0,2.75689123 0,1.77644491 C0,0.795998581 2.50749034,0 5.59598985,0 Z" id="Stroke-8" stroke="#000000" stroke-linecap="round" stroke-linejoin="round"></path>
            </g>
            <path d="M0.758352522,7.76211487 C0.758352522,6.95917191 3.10886709,6.30728844 6.00402017,6.30728844 C8.89917325,6.30728844 11.2496393,6.95917191 11.2496393,7.76211487" id="Stroke-10" stroke="#000000" stroke-linecap="round" stroke-linejoin="round"></path>
            <g id="Group-13" transform="translate(8.509813, 0.000000)">
                <path d="M0,7.91376597 C0.261335321,8.04957887 0.515396509,8.04957887 0.762135071,7.91376597 C0.762135071,7.91376597 1.24431304,3.34974755 1.24431304,3.34974755 C1.24431304,3.34974755 1.82081226,2.44394352 1.82081226,2.44394352 C1.82081226,2.44394352 4.50714926,0.639085852 4.50714926,0.639085852 C4.50714926,0.639085852 4.0885472,0 4.0885472,0 C4.0885472,0 1.24431304,1.96921911 1.24431304,1.96921911 C1.24431304,1.96921911 0.472042681,3.12860423 0.472042681,3.12860423 C0.472042681,3.12860423 0,7.91376597 0,7.91376597 Z" id="Fill-11" fill="#FFFFFF"></path>
                <path d="M0,7.91376597 C0.261335321,8.04957887 0.515396509,8.04957887 0.762135071,7.91376597 C0.762135071,7.91376597 1.24431304,3.34974755 1.24431304,3.34974755 C1.24431304,3.34974755 1.82081226,2.44394352 1.82081226,2.44394352 C1.82081226,2.44394352 4.50714926,0.639085852 4.50714926,0.639085852 C4.50714926,0.639085852 4.0885472,0 4.0885472,0 C4.0885472,0 1.24431304,1.96921911 1.24431304,1.96921911 C1.24431304,1.96921911 0.472042681,3.12860423 0.472042681,3.12860423 C0.472042681,3.12860423 0,7.91376597 0,7.91376597 Z" id="Stroke-12" stroke="#000000" stroke-linecap="round" stroke-linejoin="round"></path>
            </g>
        </g>
        <g id="icon_basket_fill" transform="translate(50.000000, 43.000000)" stroke="#000000" stroke-width="4">
            <path d="M0,32.3529412 L0,93.6029412 C0,104.878755 9.21766694,114.019608 20.5882353,114.019608 L79.4117647,114.019608 C90.7823329,114.019608 100,104.878755 100,93.6029412 L100,32.3529412 L0,32.3529412 Z" id="Path" fill-opacity="0.8" fill="#E4022B" fill-rule="nonzero"></path>
            <path d="M73.1372549,46.6666667 C73.1372549,34.0637406 73.1372549,30.1748516 73.1372549,23.3333333 C73.1372549,10.4466892 62.6905657,0 49.8039216,0 C36.9172774,0 26.4705882,10.4466892 26.4705882,23.3333333 C26.4705882,31.9244294 26.4705882,35.8133183 26.4705882,46.6666667" id="Path" stroke-linecap="round"></path>
        </g>
        <path d="M88.0501361,130.198288 C91.1139277,135.077396 96.5428832,138.320767 102.729369,138.320767 C112.295364,138.320767 120.050136,130.565996 120.050136,121" id="Path" stroke="#FFFFFF" stroke-width="3" stroke-linecap="round" transform="translate(104.050136, 129.660384) scale(-1, -1) translate(-104.050136, -129.660384) "></path>
        <circle id="Oval" fill="#FFFFFF" cx="84" cy="107" r="4"></circle>
        <circle id="Oval-Copy-2" fill-opacity="0.3" fill="#FFFFFF" cx="67" cy="119" r="5"></circle>
        <circle id="Oval-Copy-3" fill-opacity="0.3" fill="#FFFFFF" cx="133" cy="119" r="5"></circle>
        <circle id="Oval-Copy" fill="#FFFFFF" cx="116" cy="107" r="4"></circle>
        <g id="Group-5" opacity="0.07" transform="translate(159.000000, 21.000000)">
            <g id="Group-3" transform="translate(0.000000, 0.000000)">
                <path d="M4.60663644,13.3859956 C4.88453853,13.0419014 6.8386216,10.9670698 7.36280817,10.8358888 C9.29877833,11.212375 10.2685555,11.4224849 12.4766674,10.8358888 C14.8531079,10.2045863 16.1349649,8.2707091 16.6220936,6.68137412 C17.0193618,5.38496919 17.3544187,3.49835834 16.3443195,2.0813777 C14.7476306,-0.158614264 11.757911,-0.733728222 9.1186732,1.06248445 C8.36561102,1.57499043 6.92444995,2.76895816 6.12050519,4.64243555 C5.24481279,6.68332622 5.41685351,8.64444325 5.24666889,8.9057685 C4.86303344,9.49478396 2.94069597,10.9500385 2.52121871,11.2989074 C1.33914278,9.94418914 -0.288651751,10.9800625 0.0439091092,12.3750004 C0.224270253,13.1314867 0.964083762,13.4178117 1.50900739,13.5010991 C1.89085075,13.55947 2.52121871,13.5010991 2.52121871,13.5010991 C2.52121871,13.5010991 2.33336918,14.6803525 2.76270295,15.4034739 C3.31831512,16.3393358 4.71473792,16.0448312 5.1403595,15.4034739 C5.46523997,14.9139323 5.51938671,14.0144627 4.60663644,13.5010991" id="Fill-1" fill="#FFFFFF"></path>
                <path d="M4.60663644,13.3859956 C4.88453853,13.0419014 6.8386216,10.9670698 7.36280817,10.8358888 C9.29877833,11.212375 10.2685555,11.4224849 12.4766674,10.8358888 C14.8531079,10.2045863 16.1349649,8.2707091 16.6220936,6.68137412 C17.0193618,5.38496919 17.3544187,3.49835834 16.3443195,2.0813777 C14.7476306,-0.158614264 11.757911,-0.733728222 9.1186732,1.06248445 C8.36561102,1.57499043 6.92444995,2.76895816 6.12050519,4.64243555 C5.24481279,6.68332622 5.41685351,8.64444325 5.24666889,8.9057685 C4.86303344,9.49478396 2.94069597,10.9500385 2.52121871,11.2989074 C1.33914278,9.94418914 -0.288651751,10.9800625 0.0439091092,12.3750004 C0.224270253,13.1314867 0.964083762,13.4178117 1.50900739,13.5010991 C1.89085075,13.55947 2.52121871,13.5010991 2.52121871,13.5010991 C2.52121871,13.5010991 2.33336918,14.6803525 2.76270295,15.4034739 C3.31831512,16.3393358 4.71473792,16.0448312 5.1403595,15.4034739 C5.46523997,14.9139323 5.51938671,14.0144627 4.60663644,13.5010991" id="Stroke-2" stroke="#000000" stroke-linecap="round" stroke-linejoin="round"></path>
            </g>
            <path d="M9.21058185,3.42278331 C9.21058185,3.42278331 10.0771218,2.53950653 11.0653319,2.13641409 C12.2082378,1.67021446 13.2677476,2.13641409 13.2677476,2.13641409" id="Stroke-4" stroke="#000000" stroke-linecap="round" stroke-linejoin="round"></path>
        </g>
        <g id="Group-5-Copy" opacity="0.07" transform="translate(31.000000, 172.000000)">
            <g id="Group-3" transform="translate(0.000000, 0.000000)">
                <path d="M3.45497733,10.0394967 C3.66340389,9.78142605 5.1289662,8.22530235 5.52210613,8.12691656 C6.97408374,8.40928128 7.70141662,8.56686367 9.35750058,8.12691656 C11.1398309,7.65343976 12.1012237,6.20303182 12.4665702,5.01103059 C12.7645213,4.03872689 13.0158141,2.62376876 12.2582396,1.56103328 C11.0607229,-0.118960698 8.81843325,-0.550296166 6.8390049,0.796863334 C6.27420826,1.18124282 5.19333746,2.07671862 4.59037889,3.48182666 C3.93360959,5.01249466 4.06264014,6.48333244 3.93500166,6.67932637 C3.64727508,7.12108797 2.20552198,8.2125289 1.89091403,8.47418057 C1.00435708,7.45814186 -0.216488814,8.23504685 0.0329318319,9.28125029 C0.16820269,9.84861505 0.723062821,10.0633587 1.13175554,10.1258243 C1.41813806,10.1696025 1.89091403,10.1258243 1.89091403,10.1258243 C1.89091403,10.1258243 1.75002689,11.0102643 2.07202721,11.5526054 C2.48873634,12.2545018 3.53605344,12.0336234 3.85526962,11.5526054 C4.09892998,11.1854492 4.13954003,10.510847 3.45497733,10.1258243" id="Fill-1" fill="#FFFFFF"></path>
                <path d="M3.45497733,10.0394967 C3.66340389,9.78142605 5.1289662,8.22530235 5.52210613,8.12691656 C6.97408374,8.40928128 7.70141662,8.56686367 9.35750058,8.12691656 C11.1398309,7.65343976 12.1012237,6.20303182 12.4665702,5.01103059 C12.7645213,4.03872689 13.0158141,2.62376876 12.2582396,1.56103328 C11.0607229,-0.118960698 8.81843325,-0.550296166 6.8390049,0.796863334 C6.27420826,1.18124282 5.19333746,2.07671862 4.59037889,3.48182666 C3.93360959,5.01249466 4.06264014,6.48333244 3.93500166,6.67932637 C3.64727508,7.12108797 2.20552198,8.2125289 1.89091403,8.47418057 C1.00435708,7.45814186 -0.216488814,8.23504685 0.0329318319,9.28125029 C0.16820269,9.84861505 0.723062821,10.0633587 1.13175554,10.1258243 C1.41813806,10.1696025 1.89091403,10.1258243 1.89091403,10.1258243 C1.89091403,10.1258243 1.75002689,11.0102643 2.07202721,11.5526054 C2.48873634,12.2545018 3.53605344,12.0336234 3.85526962,11.5526054 C4.09892998,11.1854492 4.13954003,10.510847 3.45497733,10.1258243" id="Stroke-2" stroke="#000000" stroke-linecap="round" stroke-linejoin="round"></path>
            </g>
            <path d="M6.90793639,2.56708748 C6.90793639,2.56708748 7.55784134,1.9046299 8.29899892,1.60231057 C9.15617838,1.25266084 9.95081066,1.60231057 9.95081066,1.60231057" id="Stroke-4" stroke="#000000" stroke-linecap="round" stroke-linejoin="round"></path>
        </g>
        <g id="Group-5-Copy-2" opacity="0.1" transform="translate(170.000000, 109.000000)">
            <g id="Group-3" transform="translate(0.000000, 0.000000)">
                <path d="M3.45497733,10.0394967 C3.66340389,9.78142605 5.1289662,8.22530235 5.52210613,8.12691656 C6.97408374,8.40928128 7.70141662,8.56686367 9.35750058,8.12691656 C11.1398309,7.65343976 12.1012237,6.20303182 12.4665702,5.01103059 C12.7645213,4.03872689 13.0158141,2.62376876 12.2582396,1.56103328 C11.0607229,-0.118960698 8.81843325,-0.550296166 6.8390049,0.796863334 C6.27420826,1.18124282 5.19333746,2.07671862 4.59037889,3.48182666 C3.93360959,5.01249466 4.06264014,6.48333244 3.93500166,6.67932637 C3.64727508,7.12108797 2.20552198,8.2125289 1.89091403,8.47418057 C1.00435708,7.45814186 -0.216488814,8.23504685 0.0329318319,9.28125029 C0.16820269,9.84861505 0.723062821,10.0633587 1.13175554,10.1258243 C1.41813806,10.1696025 1.89091403,10.1258243 1.89091403,10.1258243 C1.89091403,10.1258243 1.75002689,11.0102643 2.07202721,11.5526054 C2.48873634,12.2545018 3.53605344,12.0336234 3.85526962,11.5526054 C4.09892998,11.1854492 4.13954003,10.510847 3.45497733,10.1258243" id="Fill-1" fill="#FFFFFF"></path>
                <path d="M3.45497733,10.0394967 C3.66340389,9.78142605 5.1289662,8.22530235 5.52210613,8.12691656 C6.97408374,8.40928128 7.70141662,8.56686367 9.35750058,8.12691656 C11.1398309,7.65343976 12.1012237,6.20303182 12.4665702,5.01103059 C12.7645213,4.03872689 13.0158141,2.62376876 12.2582396,1.56103328 C11.0607229,-0.118960698 8.81843325,-0.550296166 6.8390049,0.796863334 C6.27420826,1.18124282 5.19333746,2.07671862 4.59037889,3.48182666 C3.93360959,5.01249466 4.06264014,6.48333244 3.93500166,6.67932637 C3.64727508,7.12108797 2.20552198,8.2125289 1.89091403,8.47418057 C1.00435708,7.45814186 -0.216488814,8.23504685 0.0329318319,9.28125029 C0.16820269,9.84861505 0.723062821,10.0633587 1.13175554,10.1258243 C1.41813806,10.1696025 1.89091403,10.1258243 1.89091403,10.1258243 C1.89091403,10.1258243 1.75002689,11.0102643 2.07202721,11.5526054 C2.48873634,12.2545018 3.53605344,12.0336234 3.85526962,11.5526054 C4.09892998,11.1854492 4.13954003,10.510847 3.45497733,10.1258243" id="Stroke-2" stroke="#000000" stroke-linecap="round" stroke-linejoin="round"></path>
            </g>
            <path d="M6.90793639,2.56708748 C6.90793639,2.56708748 7.55784134,1.9046299 8.29899892,1.60231057 C9.15617838,1.25266084 9.95081066,1.60231057 9.95081066,1.60231057" id="Stroke-4" stroke="#000000" stroke-linecap="round" stroke-linejoin="round"></path>
        </g>
        <g id="Group-14-Copy" opacity="0.05" transform="translate(177.881361, 162.000000) rotate(-15.000000) translate(-177.881361, -162.000000) translate(173.000000, 153.000000)">
            <g id="Group-3" transform="translate(0.000000, 6.562562)">
                <path d="M1.03371635e-14,0 C1.03371635e-14,0 1.14967658,10.3111332 1.14967658,10.3111332 L1.14967658,10.3719595 C1.14967658,10.9600149 2.6536034,11.437438 4.50603389,11.437438 C6.35846438,11.437438 7.86242757,10.9600149 7.86242757,10.3719595 L7.86242757,10.3111332 C7.86242757,10.3111332 9.01206779,0 9.01206779,0" id="Fill-1" fill="#FFFFFF"></path>
                <path d="M1.03371635e-14,0 C1.03371635e-14,0 1.14967658,10.3111332 1.14967658,10.3111332 L1.14967658,10.3719595 C1.14967658,10.9600149 2.6536034,11.437438 4.50603389,11.437438 C6.35846438,11.437438 7.86242757,10.9600149 7.86242757,10.3719595 L7.86242757,10.3111332 C7.86242757,10.3111332 9.01206779,0 9.01206779,0" id="Stroke-2" stroke="#000000" stroke-linecap="round" stroke-linejoin="round"></path>
            </g>
            <g id="Group-6" transform="translate(0.000000, 5.430802)">
                <path d="M8.70302628,0 C8.70302628,0 9.01206779,0.93400584 9.01206779,1.1317604 C9.01206779,1.92124014 6.99298693,2.56219666 4.50603389,2.56219666 C2.01908086,2.56219666 1.03371635e-14,1.92124014 1.03371635e-14,1.1317604 C1.03371635e-14,0.923596557 0.309041504,0 0.309041504,0" id="Fill-4" fill="#FFFFFF"></path>
                <path d="M8.70302628,0 C8.70302628,0 9.01206779,0.93400584 9.01206779,1.1317604 C9.01206779,1.92124014 6.99298693,2.56219666 4.50603389,2.56219666 C2.01908086,2.56219666 1.03371635e-14,1.92124014 1.03371635e-14,1.1317604 C1.03371635e-14,0.923596557 0.309041504,0 0.309041504,0" id="Stroke-5" stroke="#000000" stroke-linecap="round" stroke-linejoin="round"></path>
            </g>
            <g id="Group-9" transform="translate(0.309042, 4.098468)">
                <path d="M4.19699239,0 C6.5134034,0 8.39398478,0.596998936 8.39398478,1.33233368 C8.39398478,2.06766842 6.5134034,2.664671 4.19699239,2.664671 C1.88061775,2.664671 0,2.06766842 0,1.33233368 C0,0.596998936 1.88061775,0 4.19699239,0 Z" id="Fill-7" fill="#FFFFFF"></path>
                <path d="M4.19699239,0 C6.5134034,0 8.39398478,0.596998936 8.39398478,1.33233368 C8.39398478,2.06766842 6.5134034,2.664671 4.19699239,2.664671 C1.88061775,2.664671 0,2.06766842 0,1.33233368 C0,0.596998936 1.88061775,0 4.19699239,0 Z" id="Stroke-8" stroke="#000000" stroke-linecap="round" stroke-linejoin="round"></path>
            </g>
            <path d="M0.568764392,5.82158615 C0.568764392,5.21937893 2.33165031,4.73046633 4.50301513,4.73046633 C6.67437994,4.73046633 8.43722949,5.21937893 8.43722949,5.82158615" id="Stroke-10" stroke="#000000" stroke-linecap="round" stroke-linejoin="round"></path>
            <g id="Group-13" transform="translate(6.382360, 0.000000)">
                <path d="M0,5.93532448 C0.19600149,6.03718415 0.386547382,6.03718415 0.571601303,5.93532448 C0.571601303,5.93532448 0.933234782,2.51231066 0.933234782,2.51231066 C0.933234782,2.51231066 1.3656092,1.83295764 1.3656092,1.83295764 C1.3656092,1.83295764 3.38036194,0.479314389 3.38036194,0.479314389 C3.38036194,0.479314389 3.0664104,0 3.0664104,0 C3.0664104,0 0.933234782,1.47691433 0.933234782,1.47691433 C0.933234782,1.47691433 0.354032011,2.34645317 0.354032011,2.34645317 C0.354032011,2.34645317 0,5.93532448 0,5.93532448 Z" id="Fill-11" fill="#FFFFFF"></path>
                <path d="M0,5.93532448 C0.19600149,6.03718415 0.386547382,6.03718415 0.571601303,5.93532448 C0.571601303,5.93532448 0.933234782,2.51231066 0.933234782,2.51231066 C0.933234782,2.51231066 1.3656092,1.83295764 1.3656092,1.83295764 C1.3656092,1.83295764 3.38036194,0.479314389 3.38036194,0.479314389 C3.38036194,0.479314389 3.0664104,0 3.0664104,0 C3.0664104,0 0.933234782,1.47691433 0.933234782,1.47691433 C0.933234782,1.47691433 0.354032011,2.34645317 0.354032011,2.34645317 C0.354032011,2.34645317 0,5.93532448 0,5.93532448 Z" id="Stroke-12" stroke="#000000" stroke-linecap="round" stroke-linejoin="round"></path>
            </g>
        </g>
        <g id="Group-14-Copy-3" opacity="0.1" transform="translate(121.796614, 25.000000) rotate(-15.000000) translate(-121.796614, -25.000000) translate(118.000000, 18.000000)">
            <g id="Group-3" transform="translate(0.000000, 5.104215)">
                <path d="M8.04001605e-15,0 C8.04001605e-15,0 0.894192899,8.01977028 0.894192899,8.01977028 L0.894192899,8.06707962 C0.894192899,8.52445604 2.06391376,8.89578513 3.50469303,8.89578513 C4.9454723,8.89578513 6.11522144,8.52445604 6.11522144,8.06707962 L6.11522144,8.01977028 C6.11522144,8.01977028 7.00938606,0 7.00938606,0" id="Fill-1" fill="#FFFFFF"></path>
                <path d="M8.04001605e-15,0 C8.04001605e-15,0 0.894192899,8.01977028 0.894192899,8.01977028 L0.894192899,8.06707962 C0.894192899,8.52445604 2.06391376,8.89578513 3.50469303,8.89578513 C4.9454723,8.89578513 6.11522144,8.52445604 6.11522144,8.06707962 L6.11522144,8.01977028 C6.11522144,8.01977028 7.00938606,0 7.00938606,0" id="Stroke-2" stroke="#000000" stroke-linecap="round" stroke-linejoin="round"></path>
            </g>
            <g id="Group-6" transform="translate(0.000000, 4.223957)">
                <path d="M6.76902044,0 C6.76902044,0 7.00938606,0.726448987 7.00938606,0.880258086 C7.00938606,1.49429789 5.43898983,1.99281962 3.50469303,1.99281962 C1.57039622,1.99281962 8.04001605e-15,1.49429789 8.04001605e-15,0.880258086 C8.04001605e-15,0.718352878 0.240365614,0 0.240365614,0" id="Fill-4" fill="#FFFFFF"></path>
                <path d="M6.76902044,0 C6.76902044,0 7.00938606,0.726448987 7.00938606,0.880258086 C7.00938606,1.49429789 5.43898983,1.99281962 3.50469303,1.99281962 C1.57039622,1.99281962 8.04001605e-15,1.49429789 8.04001605e-15,0.880258086 C8.04001605e-15,0.718352878 0.240365614,0 0.240365614,0" id="Stroke-5" stroke="#000000" stroke-linecap="round" stroke-linejoin="round"></path>
            </g>
            <g id="Group-9" transform="translate(0.240366, 3.187697)">
                <path d="M3.26432741,0 C5.06598042,0 6.52865483,0.464332505 6.52865483,1.03625953 C6.52865483,1.60818655 5.06598042,2.07252189 3.26432741,2.07252189 C1.4627027,2.07252189 0,1.60818655 0,1.03625953 C0,0.464332505 1.4627027,0 3.26432741,0 Z" id="Fill-7" fill="#FFFFFF"></path>
                <path d="M3.26432741,0 C5.06598042,0 6.52865483,0.464332505 6.52865483,1.03625953 C6.52865483,1.60818655 5.06598042,2.07252189 3.26432741,2.07252189 C1.4627027,2.07252189 0,1.60818655 0,1.03625953 C0,0.464332505 1.4627027,0 3.26432741,0 Z" id="Stroke-8" stroke="#000000" stroke-linecap="round" stroke-linejoin="round"></path>
            </g>
            <path d="M0.442372305,4.52790034 C0.442372305,4.05951695 1.8135058,3.67925159 3.5023451,3.67925159 C5.1911844,3.67925159 6.56228961,4.05951695 6.56228961,4.52790034" id="Stroke-10" stroke="#000000" stroke-linecap="round" stroke-linejoin="round"></path>
            <g id="Group-13" transform="translate(4.964058, 0.000000)">
                <path d="M0,4.61636348 C0.152445604,4.69558767 0.300647964,4.69558767 0.444578791,4.61636348 C0.444578791,4.61636348 0.725849275,1.9540194 0.725849275,1.9540194 C0.725849275,1.9540194 1.06214049,1.42563372 1.06214049,1.42563372 C1.06214049,1.42563372 2.6291704,0.37280008 2.6291704,0.37280008 C2.6291704,0.37280008 2.38498587,0 2.38498587,0 C2.38498587,0 0.725849275,1.14871115 0.725849275,1.14871115 C0.725849275,1.14871115 0.275358231,1.82501914 0.275358231,1.82501914 C0.275358231,1.82501914 0,4.61636348 0,4.61636348 Z" id="Fill-11" fill="#FFFFFF"></path>
                <path d="M0,4.61636348 C0.152445604,4.69558767 0.300647964,4.69558767 0.444578791,4.61636348 C0.444578791,4.61636348 0.725849275,1.9540194 0.725849275,1.9540194 C0.725849275,1.9540194 1.06214049,1.42563372 1.06214049,1.42563372 C1.06214049,1.42563372 2.6291704,0.37280008 2.6291704,0.37280008 C2.6291704,0.37280008 2.38498587,0 2.38498587,0 C2.38498587,0 0.725849275,1.14871115 0.725849275,1.14871115 C0.725849275,1.14871115 0.275358231,1.82501914 0.275358231,1.82501914 C0.275358231,1.82501914 0,4.61636348 0,4.61636348 Z" id="Stroke-12" stroke="#000000" stroke-linecap="round" stroke-linejoin="round"></path>
            </g>
        </g>
        <g id="Group-14-Copy-2" opacity="0.1" transform="translate(108.881361, 183.000000) rotate(30.000000) translate(-108.881361, -183.000000) translate(104.000000, 174.000000)">
            <g id="Group-3" transform="translate(0.000000, 6.562562)">
                <path d="M1.03371635e-14,0 C1.03371635e-14,0 1.14967658,10.3111332 1.14967658,10.3111332 L1.14967658,10.3719595 C1.14967658,10.9600149 2.6536034,11.437438 4.50603389,11.437438 C6.35846438,11.437438 7.86242757,10.9600149 7.86242757,10.3719595 L7.86242757,10.3111332 C7.86242757,10.3111332 9.01206779,0 9.01206779,0" id="Fill-1" fill="#FFFFFF"></path>
                <path d="M1.03371635e-14,0 C1.03371635e-14,0 1.14967658,10.3111332 1.14967658,10.3111332 L1.14967658,10.3719595 C1.14967658,10.9600149 2.6536034,11.437438 4.50603389,11.437438 C6.35846438,11.437438 7.86242757,10.9600149 7.86242757,10.3719595 L7.86242757,10.3111332 C7.86242757,10.3111332 9.01206779,0 9.01206779,0" id="Stroke-2" stroke="#000000" stroke-linecap="round" stroke-linejoin="round"></path>
            </g>
            <g id="Group-6" transform="translate(0.000000, 5.430802)">
                <path d="M8.70302628,0 C8.70302628,0 9.01206779,0.93400584 9.01206779,1.1317604 C9.01206779,1.92124014 6.99298693,2.56219666 4.50603389,2.56219666 C2.01908086,2.56219666 1.03371635e-14,1.92124014 1.03371635e-14,1.1317604 C1.03371635e-14,0.923596557 0.309041504,0 0.309041504,0" id="Fill-4" fill="#FFFFFF"></path>
                <path d="M8.70302628,0 C8.70302628,0 9.01206779,0.93400584 9.01206779,1.1317604 C9.01206779,1.92124014 6.99298693,2.56219666 4.50603389,2.56219666 C2.01908086,2.56219666 1.03371635e-14,1.92124014 1.03371635e-14,1.1317604 C1.03371635e-14,0.923596557 0.309041504,0 0.309041504,0" id="Stroke-5" stroke="#000000" stroke-linecap="round" stroke-linejoin="round"></path>
            </g>
            <g id="Group-9" transform="translate(0.309042, 4.098468)">
                <path d="M4.19699239,0 C6.5134034,0 8.39398478,0.596998936 8.39398478,1.33233368 C8.39398478,2.06766842 6.5134034,2.664671 4.19699239,2.664671 C1.88061775,2.664671 0,2.06766842 0,1.33233368 C0,0.596998936 1.88061775,0 4.19699239,0 Z" id="Fill-7" fill="#FFFFFF"></path>
                <path d="M4.19699239,0 C6.5134034,0 8.39398478,0.596998936 8.39398478,1.33233368 C8.39398478,2.06766842 6.5134034,2.664671 4.19699239,2.664671 C1.88061775,2.664671 0,2.06766842 0,1.33233368 C0,0.596998936 1.88061775,0 4.19699239,0 Z" id="Stroke-8" stroke="#000000" stroke-linecap="round" stroke-linejoin="round"></path>
            </g>
            <path d="M0.568764392,5.82158615 C0.568764392,5.21937893 2.33165031,4.73046633 4.50301513,4.73046633 C6.67437994,4.73046633 8.43722949,5.21937893 8.43722949,5.82158615" id="Stroke-10" stroke="#000000" stroke-linecap="round" stroke-linejoin="round"></path>
            <g id="Group-13" transform="translate(6.382360, 0.000000)">
                <path d="M0,5.93532448 C0.19600149,6.03718415 0.386547382,6.03718415 0.571601303,5.93532448 C0.571601303,5.93532448 0.933234782,2.51231066 0.933234782,2.51231066 C0.933234782,2.51231066 1.3656092,1.83295764 1.3656092,1.83295764 C1.3656092,1.83295764 3.38036194,0.479314389 3.38036194,0.479314389 C3.38036194,0.479314389 3.0664104,0 3.0664104,0 C3.0664104,0 0.933234782,1.47691433 0.933234782,1.47691433 C0.933234782,1.47691433 0.354032011,2.34645317 0.354032011,2.34645317 C0.354032011,2.34645317 0,5.93532448 0,5.93532448 Z" id="Fill-11" fill="#FFFFFF"></path>
                <path d="M0,5.93532448 C0.19600149,6.03718415 0.386547382,6.03718415 0.571601303,5.93532448 C0.571601303,5.93532448 0.933234782,2.51231066 0.933234782,2.51231066 C0.933234782,2.51231066 1.3656092,1.83295764 1.3656092,1.83295764 C1.3656092,1.83295764 3.38036194,0.479314389 3.38036194,0.479314389 C3.38036194,0.479314389 3.0664104,0 3.0664104,0 C3.0664104,0 0.933234782,1.47691433 0.933234782,1.47691433 C0.933234782,1.47691433 0.354032011,2.34645317 0.354032011,2.34645317 C0.354032011,2.34645317 0,5.93532448 0,5.93532448 Z" id="Stroke-12" stroke="#000000" stroke-linecap="round" stroke-linejoin="round"></path>
            </g>
        </g>
    </g>
</svg>